<svg xmlns="http://www.w3.org/2000/svg"
  viewBox="0 0 300 56" width="300" height="56">

  <defs>
    <linearGradient id="iconBg" x1="0" y1="0" x2="0" y2="1">
      <stop offset="0%" stop-color="#0ED2C0"/>
      <stop offset="100%" stop-color="#0891B2"/>
    </linearGradient>
  </defs>

  <!-- Ícono con fondo teal -->
  <rect x="0" y="2" width="52" height="52" rx="13" fill="url(#iconBg)"/>

  <!-- Ola mini -->
  <path d="M0 37 Q13 31 26 35 Q39 39 52 33 L52 54 L0 54 Z"
        fill="#0369A1"/>

  <!-- Base isla -->
  <ellipse cx="26" cy="36" rx="21" ry="5" fill="#134E4A"/>

  <!-- Colinas -->
  <ellipse cx="16" cy="27" rx="10" ry="9" fill="white" opacity="0.95"/>
  <ellipse cx="27" cy="24" rx="12" ry="11" fill="white"/>
  <ellipse cx="37" cy="28" rx="9" ry="8" fill="white" opacity="0.95"/>
  <ellipse cx="26" cy="33" rx="20" ry="4" fill="rgba(19,78,74,0.4)"/>

  <!-- Palmera -->
  <path d="M38 36 Q39 28 37 21"
        stroke="rgba(255,255,255,0.95)" stroke-width="2.8"
        fill="none" stroke-linecap="round"/>
  <path d="M37 21 Q31 14 26 17"
        stroke="white" stroke-width="3.5"
        fill="none" stroke-linecap="round"/>
  <path d="M37 21 Q43 14 48 17"
        stroke="white" stroke-width="3.5"
        fill="none" stroke-linecap="round"/>
  <path d="M37 21 Q38 14 37 10"
        stroke="white" stroke-width="3"
        fill="none" stroke-linecap="round"/>

  <!-- Texto NOVA teal -->
  <text x="64" y="30"
        font-family="Arial Black, Arial, sans-serif"
        font-size="20" font-weight="900"
        fill="#06B6A4" letter-spacing="2">NOVA</text>

  <!-- Subtítulo gris -->
  <text x="66" y="46"
        font-family="Arial, sans-serif"
        font-size="11" font-weight="400"
        fill="#888780" letter-spacing="1">App · Golfo de Morrosquillo</text>

</svg>