<svg xmlns="http://www.w3.org/2000/svg"
  viewBox="0 0 300 56" width="300" height="56">

  <!-- Ícono fondo semitransparente -->
  <rect x="0" y="2" width="52" height="52" rx="13"
        fill="rgba(255,255,255,0.18)"/>

  <!-- Ola mini -->
  <path d="M0 37 Q13 31 26 35 Q39 39 52 33 L52 54 L0 54 Z"
        fill="rgba(255,255,255,0.25)"/>

  <!-- Base isla mini -->
  <ellipse cx="26" cy="36" rx="21" ry="5"
           fill="rgba(255,255,255,0.38)"/>

  <!-- Colinas blancas mini -->
  <ellipse cx="16" cy="27" rx="10" ry="9" fill="white" opacity="0.86"/>
  <ellipse cx="27" cy="24" rx="12" ry="11" fill="white"/>
  <ellipse cx="37" cy="28" rx="9" ry="8" fill="white" opacity="0.86"/>

  <!-- Sombra mini -->
  <ellipse cx="26" cy="33" rx="20" ry="4"
           fill="rgba(255,255,255,0.3)"/>

  <!-- Palmera mini — tronco + 3 hojas -->
  <path d="M38 36 Q39 28 37 21"
        stroke="rgba(255,255,255,0.95)" stroke-width="2.8"
        fill="none" stroke-linecap="round"/>
  <path d="M37 21 Q31 14 26 17"
        stroke="white" stroke-width="3.5"
        fill="none" stroke-linecap="round"/>
  <path d="M37 21 Q43 14 48 17"
        stroke="white" stroke-width="3.5"
        fill="none" stroke-linecap="round"/>
  <path d="M37 21 Q38 14 37 10"
        stroke="white" stroke-width="3"
        fill="none" stroke-linecap="round"/>

  <!-- Texto NOVA -->
  <text x="64" y="30"
        font-family="Arial Black, Arial, sans-serif"
        font-size="20" font-weight="900"
        fill="white" letter-spacing="2">NOVA</text>

  <!-- Texto App subtítulo -->
  <text x="66" y="46"
        font-family="Arial, sans-serif"
        font-size="12" font-weight="300"
        fill="rgba(255,255,255,0.78)" letter-spacing="1">App</text>

</svg>