<svg xmlns="http://www.w3.org/2000/svg" viewBox="0 0 1024 1024" width="1024" height="1024">
  <rect x="0" y="0" width="1024" height="1024" rx="196" fill="#06B6A4"/>

  <!-- QR esquina superior izquierda -->
  <rect x="112" y="100" width="236" height="236" rx="32" fill="none" stroke="white" stroke-width="36"/>
  <rect x="168" y="156" width="72" height="72" rx="12" fill="white"/>

  <!-- QR esquina superior derecha -->
  <rect x="676" y="100" width="236" height="236" rx="32" fill="none" stroke="white" stroke-width="36"/>
  <rect x="732" y="156" width="72" height="72" rx="12" fill="white"/>

  <!-- QR esquina inferior izquierda -->
  <rect x="112" y="440" width="236" height="236" rx="32" fill="none" stroke="white" stroke-width="36"/>
  <rect x="168" y="496" width="72" height="72" rx="12" fill="white"/>

  <!-- QR datos (zona derecha inferior) -->
  <rect x="680" y="450" width="48" height="48" rx="8" fill="white"/>
  <rect x="748" y="450" width="48" height="48" rx="8" fill="white"/>
  <rect x="816" y="450" width="88" height="48" rx="8" fill="white"/>
  <rect x="680" y="518" width="88" height="48" rx="8" fill="white"/>
  <rect x="788" y="518" width="116" height="48" rx="8" fill="white"/>
  <rect x="680" y="586" width="48" height="48" rx="8" fill="white"/>
  <rect x="748" y="586" width="96" height="48" rx="8" fill="white"/>
  <rect x="864" y="586" width="40" height="48" rx="8" fill="white"/>
  <rect x="680" y="648" width="112" height="40" rx="8" fill="white"/>
  <rect x="812" y="648" width="92" height="40" rx="8" fill="white"/>

  <!-- Línea separadora -->
  <rect x="100" y="740" width="824" height="6" rx="3" fill="rgba(255,255,255,0.3)"/>

  <!-- Texto NOVA -->
  <text x="512" y="860"
    text-anchor="middle"
    font-family="Arial Black, Arial, sans-serif"
    font-size="148"
    font-weight="900"
    fill="white"
    letter-spacing="24">NOVA</text>

  <!-- Texto App -->
  <text x="512" y="960"
    text-anchor="middle"
    font-family="Arial, sans-serif"
    font-size="80"
    font-weight="400"
    fill="rgba(255,255,255,0.85)"
    letter-spacing="12">App</text>
</svg>