<svg xmlns="http://www.w3.org/2000/svg"
  viewBox="0 0 1024 1024" width="1024" height="1024">

  <!-- Fondo degradado teal -->
  <defs>
    <linearGradient id="bg" x1="0" y1="0" x2="0" y2="1">
      <stop offset="0%" stop-color="#0ED2C0"/>
      <stop offset="100%" stop-color="#0891B2"/>
    </linearGradient>
  </defs>
  <rect width="1024" height="1024" rx="210" fill="url(#bg)"/>

  <!-- Ola principal -->
  <path d="M0 700 Q128 650 256 678 Q384 706 512 670
           Q640 634 768 660 Q896 686 1024 650
           L1024 880 Q896 856 768 872
           Q640 888 512 864 Q384 840 256 860
           Q128 880 0 858 Z"
        fill="#0369A1"/>

  <!-- Ola secundaria suave -->
  <path d="M0 740 Q128 718 256 732
           Q384 748 512 720 Q640 694 768 714
           Q896 734 1024 712 L1024 900 L0 900 Z"
        fill="#0EA5E9" opacity="0.45"/>

  <!-- Espuma olas -->
  <circle cx="220" cy="704" r="20" fill="white" opacity="0.65"/>
  <circle cx="244" cy="688" r="12" fill="white" opacity="0.45"/>
  <circle cx="720" cy="672" r="18" fill="white" opacity="0.65"/>
  <circle cx="748" cy="690" r="11" fill="white" opacity="0.45"/>

  <!-- Base isla -->
  <ellipse cx="512" cy="642" rx="370" ry="78" fill="#134E4A"/>

  <!-- Colinas blancas -->
  <ellipse cx="370" cy="526" rx="172" ry="162" fill="white" opacity="0.96"/>
  <ellipse cx="520" cy="492" rx="204" ry="184" fill="white"/>
  <ellipse cx="668" cy="534" rx="144" ry="132" fill="white" opacity="0.96"/>

  <!-- Sombra base colinas -->
  <ellipse cx="512" cy="614" rx="362" ry="58"
           fill="rgba(19,78,74,0.42)"/>

  <!-- Palmera tronco grueso -->
  <path d="M678 642 Q682 554 674 474 Q670 434 678 392"
        stroke="rgba(255,255,255,0.95)" stroke-width="28"
        fill="none" stroke-linecap="round"/>

  <!-- Hoja izquierda principal -->
  <path d="M678 392 Q594 294 520 330"
        stroke="white" stroke-width="36"
        fill="none" stroke-linecap="round"/>

  <!-- Hoja derecha principal -->
  <path d="M678 392 Q762 294 828 326"
        stroke="white" stroke-width="36"
        fill="none" stroke-linecap="round"/>

  <!-- Hoja superior -->
  <path d="M678 392 Q684 292 676 238"
        stroke="white" stroke-width="30"
        fill="none" stroke-linecap="round"/>

  <!-- Hoja izquierda secundaria -->
  <path d="M678 392 Q620 310 572 340"
        stroke="rgba(255,255,255,0.75)" stroke-width="24"
        fill="none" stroke-linecap="round"/>

  <!-- Hoja derecha secundaria -->
  <path d="M678 392 Q738 314 784 344"
        stroke="rgba(255,255,255,0.75)" stroke-width="24"
        fill="none" stroke-linecap="round"/>

  <!-- Coco -->
  <circle cx="654" cy="420" r="26" fill="rgba(255,255,255,0.5)"/>
  <circle cx="670" cy="402" r="18" fill="rgba(255,255,255,0.35)"/>

  <!-- Línea separadora -->
  <rect x="80" y="920" width="864" height="5" rx="2.5"
        fill="rgba(255,255,255,0.22)"/>

  <!-- Texto NOVA -->
  <text x="512" y="980"
        text-anchor="middle"
        font-family="Arial Black, Arial, sans-serif"
        font-size="140" font-weight="900"
        fill="white" letter-spacing="22">NOVA</text>

</svg>