<svg xmlns="http://www.w3.org/2000/svg"
  viewBox="0 0 512 512" width="512" height="512">

  <defs>
    <linearGradient id="bg2" x1="0" y1="0" x2="0" y2="1">
      <stop offset="0%" stop-color="#0ED2C0"/>
      <stop offset="100%" stop-color="#0891B2"/>
    </linearGradient>
  </defs>
  <rect width="512" height="512" rx="105" fill="url(#bg2)"/>

  <!-- Ola simple y limpia -->
  <path d="M0 338 Q128 302 256 326
           Q384 350 512 318 L512 512 L0 512 Z"
        fill="#0369A1"/>

  <!-- Ola suave -->
  <path d="M0 360 Q128 344 256 358
           Q384 374 512 356 L512 512 L0 512 Z"
        fill="#0EA5E9" opacity="0.4"/>

  <!-- Base isla sólida -->
  <ellipse cx="256" cy="318" rx="195" ry="40" fill="#134E4A"/>

  <!-- 3 colinas grandes y limpias -->
  <ellipse cx="172" cy="240" rx="104" ry="98" fill="white"/>
  <ellipse cx="266" cy="218" rx="124" ry="114" fill="white"/>
  <ellipse cx="352" cy="248" rx="92" ry="86" fill="white"/>

  <!-- Sombra base -->
  <ellipse cx="256" cy="302" rx="190" ry="34"
           fill="rgba(19,78,74,0.45)"/>

  <!-- Tronco palmera MUY grueso -->
  <path d="M354 320 Q358 262 352 210"
        stroke="rgba(255,255,255,0.96)" stroke-width="22"
        fill="none" stroke-linecap="round"/>

  <!-- Solo 3 hojas MUY gruesas -->
  <path d="M352 210 Q296 148 252 170"
        stroke="white" stroke-width="28"
        fill="none" stroke-linecap="round"/>
  <path d="M352 210 Q408 148 448 168"
        stroke="white" stroke-width="28"
        fill="none" stroke-linecap="round"/>
  <path d="M352 210 Q356 146 350 118"
        stroke="white" stroke-width="24"
        fill="none" stroke-linecap="round"/>

</svg>